<?xml version="1.0"?><svg width="1200" height="1000" xmlns="http://www.w3.org/2000/svg">
 <metadata id="metadata7">image/svg+xml</metadata>
 <g>
  <g id="g5499">
   <g id="g5478">
    <path id="path5490" d="m759.764587,591.510376l148.018311,-24.658325l-93.28656,-123.689941c-48.35553,43.036011 -54.369934,94.695496 -54.73175,148.348267zm-40.718323,9.049866c-0.238342,-5.36084 -1.08197,-13.98114 -1.08197,-20.016846c0,-61.206543 19.3974,-120.686005 72.043335,-170.118195l-54.828186,-67.009186l-84.864868,264.263428l68.731689,-7.119202zm-325.730103,-263.007324l4.704346,-14.705933l302.267456,-0.403656l-80.409058,248.810272l-3.470398,-25.955627l9.251526,0l-1.161377,-16.5177l-40.456299,0l1.157898,15.33905l10.404541,0l2.31073,28.317932c0,0 -203.443176,-233.705841 -204.599365,-234.884338zm-133.871216,239.013428c40.591492,-32.911133 72.186768,-64.276245 94.971649,-127.046082c35.9617,33.299286 56.479645,81.463318 56.479645,131.023132c0,98.419189 -78.645752,178.693726 -175.069565,178.693726c-96.422302,0 -175.064846,-80.274536 -175.064846,-178.693726c0,-98.422638 78.642544,-178.695404 175.064846,-178.695404c30.773636,0 62.23204,9.072418 87.598221,24.356476c-17.171173,55.3797 -33.872284,83.942657 -86.702393,127.353088c-12.825043,0.552124 -22.575378,11.061829 -22.575378,23.597229c0,12.999451 10.384308,23.598755 23.116272,23.598755c12.733734,0 22.181549,-10.599304 22.181549,-24.187195zm506.521729,52.912231c19.799622,75.315613 90.23877,129.763672 168.200012,129.763672c96.423767,0 175.07135,-80.274353 175.07135,-178.698853c0,-98.422638 -78.647583,-178.7005 -175.07135,-178.7005c-30.775513,0 -66.382019,7.415833 -92.360107,22.938019l95.022522,128.776642c11.621399,0.186401 21.740112,10.785645 21.740112,23.597229c0,12.999451 -10.389221,23.598755 -23.119629,23.598755c-3.524475,0 -7.224731,-0.921387 -10.350342,-2.424194l-159.132568,31.149231zm-430.043091,-244.636475l62.015717,-174.631958l-19.650848,-34.220718l39.301941,-43.65361l84.381378,0l1.157928,24.777374l-73.980438,0l-15.027588,16.517578l17.338318,31.856903l-21.802734,78.88031l302.833588,0l4.624878,-14.426483c-24.338379,-3.233398 -66.315979,-18.539825 -76.341797,-27.425827c-10.025818,-8.891159 -1.247559,-17.066345 10.172913,-17.449478c59.770813,-2.591537 148.569275,-7.702347 165.439453,-7.776459c16.865173,-0.079468 18.594238,8.580566 7.302429,21.188324c-11.29187,12.606094 -21.162109,23.957672 -63.942749,30.723236l-11.557251,31.856781l71.657776,90.616669c33.777405,-20.931213 74.627869,-31.820496 114.32019,-31.820496c119.08197,0 216.205383,99.137024 216.205383,220.689148c0,121.550598 -97.123413,220.68573 -216.205383,220.68573c-97.967224,0 -184.111816,-68.962402 -209.427124,-164.277588l-65.848022,12.078186c-2.81958,7.923218 -9.388367,14.000122 -17.236938,18.755493l11.744995,56.858521l15.025818,0l1.156189,15.339111l-47.392029,2.356995l0,-16.517639l11.56073,0l-14.315979,-56.825745c-21.304077,-3.55603 -32.46582,-22.170105 -26.121826,-40.644531l-215.105194,-248.323883l-9.630127,26.64444c52.206268,41.973114 83.455078,106.628784 83.455078,173.870911c0,121.550598 -97.123718,220.68573 -216.205582,220.68573c-119.080467,0 -216.203976,-99.135132 -216.203976,-220.68573c0,-121.552124 97.123508,-220.689148 216.203976,-220.689148c34.627792,0 70.099136,8.625549 100.096909,24.987854z" clip-rule="evenodd" fill-rule="evenodd" fill="#055d8f"/>
   </g>
  </g>
  <title>Layer 1</title>
 </g>
</svg>